# Blender v2.79 (sub 0) OBJ File: 'table-1m3.blend'
# www.blender.org
mtllib table-1m3.mtl
o Circle.002_Circle.003
v 0.000000 0.100000 0.050000
v -0.097545 0.098079 0.050000
v -0.191342 0.092388 0.050000
v -0.277785 0.083147 0.050000
v -0.353553 0.070711 0.050000
v -0.415735 0.055557 0.050000
v -0.461940 0.038268 0.050000
v -0.490393 0.019509 0.050000
v -0.500000 -0.000000 0.050000
v 0.500000 0.000000 0.050000
v 0.490393 0.019509 0.050000
v 0.461940 0.038268 0.050000
v 0.415734 0.055557 0.050000
v 0.353553 0.070711 0.050000
v 0.277785 0.083147 0.050000
v 0.191341 0.092388 0.050000
v 0.097544 0.098079 0.050000
v -0.000000 0.050000 0.050000
v -0.048773 0.049039 0.050000
v -0.095671 0.046194 0.050000
v -0.138893 0.041573 0.050000
v -0.176777 0.035355 0.050000
v -0.207867 0.027778 0.050000
v -0.230970 0.019134 0.050000
v -0.245196 0.009754 0.050000
v -0.250000 -0.000000 0.050000
v 0.250000 0.000000 0.050000
v 0.245196 0.009755 0.050000
v 0.230970 0.019134 0.050000
v 0.207867 0.027779 0.050000
v 0.176776 0.035355 0.050000
v 0.138892 0.041573 0.050000
v 0.095670 0.046194 0.050000
v 0.048772 0.049039 0.050000
v 0.000000 0.100000 -0.050000
v -0.097545 0.098078 -0.050000
v -0.191342 0.092388 -0.050000
v -0.277785 0.083147 -0.050000
v -0.353553 0.070711 -0.050000
v -0.415735 0.055557 -0.050000
v -0.461940 0.038268 -0.050000
v -0.490393 0.019509 -0.050000
v -0.500000 -0.000000 -0.050000
v 0.500000 0.000000 -0.050000
v 0.490393 0.019509 -0.050000
v 0.461940 0.038268 -0.050000
v 0.415734 0.055557 -0.050000
v 0.353553 0.070711 -0.050000
v 0.277785 0.083147 -0.050000
v 0.191341 0.092388 -0.050000
v 0.097544 0.098079 -0.050000
v -0.000000 0.050000 -0.050000
v -0.048773 0.049039 -0.050000
v -0.095671 0.046194 -0.050000
v -0.138893 0.041573 -0.050000
v -0.176777 0.035355 -0.050000
v -0.207867 0.027778 -0.050000
v -0.230970 0.019134 -0.050000
v -0.245196 0.009754 -0.050000
v -0.250000 -0.000000 -0.050000
v 0.250000 0.000000 -0.050000
v 0.245196 0.009755 -0.050000
v 0.230970 0.019134 -0.050000
v 0.207867 0.027779 -0.050000
v 0.176776 0.035355 -0.050000
v 0.138892 0.041573 -0.050000
v 0.095670 0.046194 -0.050000
v 0.048772 0.049039 -0.050000
v 0.050000 0.100000 -0.000000
v 0.050000 0.098078 0.097545
v 0.050000 0.092388 0.191342
v 0.050000 0.083147 0.277785
v 0.050000 0.070711 0.353553
v 0.050000 0.055557 0.415735
v 0.050000 0.038268 0.461940
v 0.050000 0.019509 0.490393
v 0.050000 -0.000000 0.500000
v 0.050000 0.000000 -0.500000
v 0.050000 0.019509 -0.490393
v 0.050000 0.038268 -0.461940
v 0.050000 0.055557 -0.415734
v 0.050000 0.070711 -0.353553
v 0.050000 0.083147 -0.277785
v 0.050000 0.092388 -0.191341
v 0.050000 0.098079 -0.097544
v 0.050000 0.050000 0.000000
v 0.050000 0.049039 0.048773
v 0.050000 0.046194 0.095671
v 0.050000 0.041573 0.138893
v 0.050000 0.035355 0.176777
v 0.050000 0.027778 0.207867
v 0.050000 0.019134 0.230970
v 0.050000 0.009754 0.245196
v 0.050000 -0.000000 0.250000
v 0.050000 0.000000 -0.250000
v 0.050000 0.009755 -0.245196
v 0.050000 0.019134 -0.230970
v 0.050000 0.027779 -0.207867
v 0.050000 0.035355 -0.176776
v 0.050000 0.041573 -0.138892
v 0.050000 0.046194 -0.095670
v 0.050000 0.049039 -0.048772
v -0.050000 0.100000 -0.000000
v -0.050000 0.098078 0.097545
v -0.050000 0.092388 0.191342
v -0.050000 0.083147 0.277785
v -0.050000 0.070711 0.353553
v -0.050000 0.055557 0.415735
v -0.050000 0.038268 0.461940
v -0.050000 0.019509 0.490393
v -0.050000 -0.000000 0.500000
v -0.050000 0.000000 -0.500000
v -0.050000 0.019509 -0.490393
v -0.050000 0.038268 -0.461940
v -0.050000 0.055557 -0.415734
v -0.050000 0.070711 -0.353553
v -0.050000 0.083147 -0.277785
v -0.050000 0.092388 -0.191341
v -0.050000 0.098079 -0.097544
v -0.050000 0.050000 0.000000
v -0.050000 0.049039 0.048773
v -0.050000 0.046194 0.095671
v -0.050000 0.041573 0.138893
v -0.050000 0.035355 0.176777
v -0.050000 0.027778 0.207867
v -0.050000 0.019134 0.230970
v -0.050000 0.009754 0.245196
v -0.050000 -0.000000 0.250000
v -0.050000 0.000000 -0.250000
v -0.050000 0.009755 -0.245196
v -0.050000 0.019134 -0.230970
v -0.050000 0.027779 -0.207867
v -0.050000 0.035355 -0.176776
v -0.050000 0.041573 -0.138892
v -0.050000 0.046194 -0.095670
v -0.050000 0.049039 -0.048772
v 0.000000 0.050000 -0.050000
v 0.000000 0.950000 -0.050000
v 0.009755 0.050000 -0.049039
v 0.009755 0.950000 -0.049039
v 0.019134 0.050000 -0.046194
v 0.019134 0.950000 -0.046194
v 0.027779 0.050000 -0.041573
v 0.027779 0.950000 -0.041573
v 0.035355 0.050000 -0.035355
v 0.035355 0.950000 -0.035355
v 0.041573 0.050000 -0.027779
v 0.041573 0.950000 -0.027779
v 0.046194 0.050000 -0.019134
v 0.046194 0.950000 -0.019134
v 0.049039 0.050000 -0.009755
v 0.049039 0.950000 -0.009755
v 0.050000 0.050000 -0.000000
v 0.050000 0.950000 -0.000000
v 0.049039 0.050000 0.009755
v 0.049039 0.950000 0.009755
v 0.046194 0.050000 0.019134
v 0.046194 0.950000 0.019134
v 0.041573 0.050000 0.027779
v 0.041573 0.950000 0.027779
v 0.035355 0.050000 0.035355
v 0.035355 0.950000 0.035355
v 0.027779 0.050000 0.041573
v 0.027779 0.950000 0.041573
v 0.019134 0.050000 0.046194
v 0.019134 0.950000 0.046194
v 0.009755 0.050000 0.049039
v 0.009755 0.950000 0.049039
v -0.000000 0.050000 0.050000
v -0.000000 0.950000 0.050000
v -0.009755 0.050000 0.049039
v -0.009755 0.950000 0.049039
v -0.019134 0.050000 0.046194
v -0.019134 0.950000 0.046194
v -0.027779 0.050000 0.041573
v -0.027779 0.950000 0.041573
v -0.035355 0.050000 0.035355
v -0.035355 0.950000 0.035355
v -0.041574 0.050000 0.027778
v -0.041574 0.950000 0.027778
v -0.046194 0.050000 0.019134
v -0.046194 0.950000 0.019134
v -0.049039 0.050000 0.009754
v -0.049039 0.950000 0.009754
v -0.050000 0.050000 -0.000000
v -0.050000 0.950000 -0.000000
v -0.049039 0.050000 -0.009755
v -0.049039 0.950000 -0.009755
v -0.046194 0.050000 -0.019134
v -0.046194 0.950000 -0.019134
v -0.041573 0.050000 -0.027779
v -0.041573 0.950000 -0.027779
v -0.035355 0.050000 -0.035355
v -0.035355 0.950000 -0.035355
v -0.027778 0.050000 -0.041574
v -0.027778 0.950000 -0.041574
v -0.019134 0.050000 -0.046194
v -0.019134 0.950000 -0.046194
v -0.009754 0.050000 -0.049039
v -0.009754 0.950000 -0.049039
v 0.000000 0.950000 -0.500000
v -0.097545 0.950000 -0.490393
v -0.191342 0.950000 -0.461940
v -0.277785 0.950000 -0.415735
v -0.353553 0.950000 -0.353553
v -0.415735 0.950000 -0.277785
v -0.461940 0.950000 -0.191342
v -0.490393 0.950000 -0.097545
v -0.500000 0.950000 -0.000000
v -0.490393 0.950000 0.097545
v -0.461940 0.950000 0.191342
v -0.415735 0.950000 0.277785
v -0.353553 0.950000 0.353553
v -0.277785 0.950000 0.415735
v -0.191342 0.950000 0.461940
v -0.097545 0.950000 0.490393
v 0.000000 0.950000 0.500000
v 0.097545 0.950000 0.490393
v 0.191342 0.950000 0.461940
v 0.277785 0.950000 0.415735
v 0.353554 0.950000 0.353553
v 0.415735 0.950000 0.277785
v 0.461940 0.950000 0.191341
v 0.490393 0.950000 0.097545
v 0.500000 0.950000 -0.000000
v 0.490393 0.950000 -0.097546
v 0.461940 0.950000 -0.191342
v 0.415734 0.950000 -0.277786
v 0.353553 0.950000 -0.353554
v 0.277785 0.950000 -0.415735
v 0.191341 0.950000 -0.461940
v 0.097544 0.950000 -0.490393
v 0.000000 1.000000 -0.500000
v -0.097545 1.000000 -0.490393
v -0.191342 1.000000 -0.461940
v -0.277785 1.000000 -0.415735
v -0.353553 1.000000 -0.353553
v -0.415735 1.000000 -0.277785
v -0.461940 1.000000 -0.191342
v -0.490393 1.000000 -0.097545
v -0.500000 1.000000 -0.000000
v -0.490393 1.000000 0.097545
v -0.461940 1.000000 0.191342
v -0.415735 1.000000 0.277785
v -0.353553 1.000000 0.353553
v -0.277785 1.000000 0.415735
v -0.191342 1.000000 0.461940
v -0.097545 1.000000 0.490393
v 0.000000 1.000000 0.500000
v 0.097545 1.000000 0.490393
v 0.191342 1.000000 0.461940
v 0.277785 1.000000 0.415735
v 0.353554 1.000000 0.353553
v 0.415735 1.000000 0.277785
v 0.461940 1.000000 0.191341
v 0.490393 1.000000 0.097545
v 0.500000 1.000000 -0.000000
v 0.490393 1.000000 -0.097546
v 0.461940 1.000000 -0.191342
v 0.415734 1.000000 -0.277786
v 0.353553 1.000000 -0.353554
v 0.277785 1.000000 -0.415735
v 0.191341 1.000000 -0.461940
v 0.097544 1.000000 -0.490393
vn -0.0000 0.0000 1.0000
vn -0.0000 0.0000 -1.0000
vn -0.3504 -0.9366 0.0000
vn 0.1063 0.9943 -0.0000
vn -0.0197 0.9998 -0.0000
vn -0.2368 -0.9716 -0.0000
vn 0.0606 0.9982 -0.0000
vn -0.0606 0.9982 -0.0000
vn -0.1620 -0.9868 -0.0000
vn 0.0197 0.9998 -0.0000
vn -0.1063 0.9943 0.0000
vn -0.1063 -0.9943 -0.0000
vn 0.0197 -0.9998 -0.0000
vn -0.1620 0.9868 0.0000
vn -0.0606 -0.9982 -0.0000
vn 0.0606 -0.9982 -0.0000
vn -0.2368 0.9716 0.0000
vn -0.0197 -0.9998 -0.0000
vn 0.1063 -0.9943 -0.0000
vn -0.3504 0.9366 0.0000
vn 0.1620 -0.9868 -0.0000
vn -0.5504 0.8349 0.0000
vn 0.0000 -1.0000 0.0000
vn 0.2368 -0.9716 -0.0000
vn -0.8971 0.4418 0.0000
vn 0.3504 -0.9366 0.0000
vn 0.8971 0.4418 0.0000
vn 0.5504 -0.8349 0.0000
vn 0.5504 0.8349 0.0000
vn 0.8971 -0.4418 0.0000
vn 0.3504 0.9366 0.0000
vn -0.8971 -0.4418 0.0000
vn 0.2368 0.9716 0.0000
vn -0.5504 -0.8349 0.0000
vn 0.1620 0.9868 -0.0000
vn 1.0000 0.0000 -0.0000
vn -1.0000 -0.0000 0.0000
vn 0.0000 -0.9366 0.3504
vn -0.0000 0.9943 -0.1063
vn -0.0000 0.9998 0.0197
vn -0.0000 -0.9716 0.2368
vn -0.0000 0.9982 -0.0606
vn -0.0000 0.9982 0.0606
vn -0.0000 -0.9868 0.1620
vn -0.0000 0.9998 -0.0197
vn -0.0000 0.9943 0.1063
vn -0.0000 -0.9943 0.1063
vn -0.0000 -0.9998 -0.0197
vn 0.0000 0.9868 0.1620
vn -0.0000 -0.9982 0.0606
vn -0.0000 -0.9982 -0.0606
vn 0.0000 0.9716 0.2368
vn -0.0000 -0.9998 0.0197
vn -0.0000 -0.9943 -0.1063
vn 0.0000 0.9366 0.3504
vn -0.0000 -0.9868 -0.1620
vn 0.0000 0.8349 0.5504
vn -0.0000 -0.9716 -0.2368
vn -0.0000 0.4418 0.8971
vn 0.0000 -0.9366 -0.3504
vn 0.0000 0.4418 -0.8971
vn 0.0000 -0.8349 -0.5504
vn 0.0000 0.8349 -0.5504
vn 0.0000 -0.4418 -0.8971
vn 0.0000 0.9366 -0.3504
vn 0.0000 -0.4418 0.8971
vn -0.0000 0.9716 -0.2368
vn 0.0000 -0.8349 0.5504
vn -0.0000 0.9868 -0.1620
vn 0.0980 0.0000 -0.9952
vn 0.2903 0.0000 -0.9569
vn 0.4714 0.0000 -0.8819
vn 0.6344 0.0000 -0.7730
vn 0.7730 -0.0000 -0.6344
vn 0.8819 0.0000 -0.4714
vn 0.9569 0.0000 -0.2903
vn 0.9952 -0.0000 -0.0980
vn 0.9952 0.0000 0.0980
vn 0.9569 0.0000 0.2903
vn 0.8819 0.0000 0.4714
vn 0.7730 0.0000 0.6344
vn 0.6344 0.0000 0.7730
vn 0.4714 0.0000 0.8819
vn 0.2903 0.0000 0.9569
vn 0.0980 0.0000 0.9952
vn -0.0980 0.0000 0.9952
vn -0.2903 0.0000 0.9569
vn -0.4714 0.0000 0.8819
vn -0.6344 0.0000 0.7730
vn -0.7730 -0.0000 0.6344
vn -0.8819 -0.0000 0.4714
vn -0.9569 0.0000 0.2903
vn -0.9952 0.0000 0.0980
vn -0.9952 0.0000 -0.0980
vn -0.9569 0.0000 -0.2903
vn -0.8819 -0.0000 -0.4714
vn -0.7730 -0.0000 -0.6344
vn -0.6344 0.0000 -0.7730
vn -0.4714 0.0000 -0.8819
vn 0.0000 1.0000 -0.0000
vn -0.2903 0.0000 -0.9569
vn -0.0980 0.0000 -0.9952
usemtl None
s off
f 9//1 26//1 25//1 8//1
f 11//1 28//1 27//1 10//1
f 12//1 29//1 28//1 11//1
f 13//1 30//1 29//1 12//1
f 2//1 19//1 18//1 1//1
f 14//1 31//1 30//1 13//1
f 3//1 20//1 19//1 2//1
f 15//1 32//1 31//1 14//1
f 4//1 21//1 20//1 3//1
f 16//1 33//1 32//1 15//1
f 5//1 22//1 21//1 4//1
f 17//1 34//1 33//1 16//1
f 6//1 23//1 22//1 5//1
f 1//1 18//1 34//1 17//1
f 7//1 24//1 23//1 6//1
f 8//1 25//1 24//1 7//1
f 43//2 42//2 59//2 60//2
f 45//2 44//2 61//2 62//2
f 46//2 45//2 62//2 63//2
f 47//2 46//2 63//2 64//2
f 36//2 35//2 52//2 53//2
f 48//2 47//2 64//2 65//2
f 37//2 36//2 53//2 54//2
f 49//2 48//2 65//2 66//2
f 38//2 37//2 54//2 55//2
f 50//2 49//2 66//2 67//2
f 39//2 38//2 55//2 56//2
f 51//2 50//2 67//2 68//2
f 40//2 39//2 56//2 57//2
f 35//2 51//2 68//2 52//2
f 41//2 40//2 57//2 58//2
f 42//2 41//2 58//2 59//2
f 29//3 30//3 64//3 63//3
f 16//4 15//4 49//4 50//4
f 2//5 1//5 35//5 36//5
f 30//6 31//6 65//6 64//6
f 17//7 16//7 50//7 51//7
f 3//8 2//8 36//8 37//8
f 31//9 32//9 66//9 65//9
f 1//10 17//10 51//10 35//10
f 4//11 3//11 37//11 38//11
f 32//12 33//12 67//12 66//12
f 18//13 19//13 53//13 52//13
f 5//14 4//14 38//14 39//14
f 33//15 34//15 68//15 67//15
f 19//16 20//16 54//16 53//16
f 6//17 5//17 39//17 40//17
f 34//18 18//18 52//18 68//18
f 20//19 21//19 55//19 54//19
f 7//20 6//20 40//20 41//20
f 21//21 22//21 56//21 55//21
f 8//22 7//22 41//22 42//22
f 26//23 9//23 43//23 60//23
f 22//24 23//24 57//24 56//24
f 9//25 8//25 42//25 43//25
f 10//23 27//23 61//23 44//23
f 23//26 24//26 58//26 57//26
f 11//27 10//27 44//27 45//27
f 24//28 25//28 59//28 58//28
f 12//29 11//29 45//29 46//29
f 25//30 26//30 60//30 59//30
f 13//31 12//31 46//31 47//31
f 27//32 28//32 62//32 61//32
f 14//33 13//33 47//33 48//33
f 28//34 29//34 63//34 62//34
f 15//35 14//35 48//35 49//35
f 77//36 94//36 93//36 76//36
f 79//36 96//36 95//36 78//36
f 80//36 97//36 96//36 79//36
f 81//36 98//36 97//36 80//36
f 70//36 87//36 86//36 69//36
f 82//36 99//36 98//36 81//36
f 71//36 88//36 87//36 70//36
f 83//36 100//36 99//36 82//36
f 72//36 89//36 88//36 71//36
f 84//36 101//36 100//36 83//36
f 73//36 90//36 89//36 72//36
f 85//36 102//36 101//36 84//36
f 74//36 91//36 90//36 73//36
f 69//36 86//36 102//36 85//36
f 75//36 92//36 91//36 74//36
f 76//36 93//36 92//36 75//36
f 111//37 110//37 127//37 128//37
f 113//37 112//37 129//37 130//37
f 114//37 113//37 130//37 131//37
f 115//37 114//37 131//37 132//37
f 104//37 103//37 120//37 121//37
f 116//37 115//37 132//37 133//37
f 105//37 104//37 121//37 122//37
f 117//37 116//37 133//37 134//37
f 106//37 105//37 122//37 123//37
f 118//37 117//37 134//37 135//37
f 107//37 106//37 123//37 124//37
f 119//37 118//37 135//37 136//37
f 108//37 107//37 124//37 125//37
f 103//37 119//37 136//37 120//37
f 109//37 108//37 125//37 126//37
f 110//37 109//37 126//37 127//37
f 97//38 98//38 132//38 131//38
f 84//39 83//39 117//39 118//39
f 70//40 69//40 103//40 104//40
f 98//41 99//41 133//41 132//41
f 85//42 84//42 118//42 119//42
f 71//43 70//43 104//43 105//43
f 99//44 100//44 134//44 133//44
f 69//45 85//45 119//45 103//45
f 72//46 71//46 105//46 106//46
f 100//47 101//47 135//47 134//47
f 86//48 87//48 121//48 120//48
f 73//49 72//49 106//49 107//49
f 101//50 102//50 136//50 135//50
f 87//51 88//51 122//51 121//51
f 74//52 73//52 107//52 108//52
f 102//53 86//53 120//53 136//53
f 88//54 89//54 123//54 122//54
f 75//55 74//55 108//55 109//55
f 89//56 90//56 124//56 123//56
f 76//57 75//57 109//57 110//57
f 94//23 77//23 111//23 128//23
f 90//58 91//58 125//58 124//58
f 77//59 76//59 110//59 111//59
f 78//23 95//23 129//23 112//23
f 91//60 92//60 126//60 125//60
f 79//61 78//61 112//61 113//61
f 92//62 93//62 127//62 126//62
f 80//63 79//63 113//63 114//63
f 93//64 94//64 128//64 127//64
f 81//65 80//65 114//65 115//65
f 95//66 96//66 130//66 129//66
f 82//67 81//67 115//67 116//67
f 96//68 97//68 131//68 130//68
f 83//69 82//69 116//69 117//69
f 137//70 138//70 140//70 139//70
f 139//71 140//71 142//71 141//71
f 141//72 142//72 144//72 143//72
f 143//73 144//73 146//73 145//73
f 145//74 146//74 148//74 147//74
f 147//75 148//75 150//75 149//75
f 149//76 150//76 152//76 151//76
f 151//77 152//77 154//77 153//77
f 153//78 154//78 156//78 155//78
f 155//79 156//79 158//79 157//79
f 157//80 158//80 160//80 159//80
f 159//81 160//81 162//81 161//81
f 161//82 162//82 164//82 163//82
f 163//83 164//83 166//83 165//83
f 165//84 166//84 168//84 167//84
f 167//85 168//85 170//85 169//85
f 169//86 170//86 172//86 171//86
f 171//87 172//87 174//87 173//87
f 173//88 174//88 176//88 175//88
f 175//89 176//89 178//89 177//89
f 177//90 178//90 180//90 179//90
f 179//91 180//91 182//91 181//91
f 181//92 182//92 184//92 183//92
f 183//93 184//93 186//93 185//93
f 185//94 186//94 188//94 187//94
f 187//95 188//95 190//95 189//95
f 189//96 190//96 192//96 191//96
f 191//97 192//97 194//97 193//97
f 193//98 194//98 196//98 195//98
f 195//99 196//99 198//99 197//99
f 140//100 138//100 200//100 198//100 196//100 194//100 192//100 190//100 188//100 186//100 184//100 182//100 180//100 178//100 176//100 174//100 172//100 170//100 168//100 166//100 164//100 162//100 160//100 158//100 156//100 154//100 152//100 150//100 148//100 146//100 144//100 142//100
f 197//101 198//101 200//101 199//101
f 199//102 200//102 138//102 137//102
f 137//23 139//23 141//23 143//23 145//23 147//23 149//23 151//23 153//23 155//23 157//23 159//23 161//23 163//23 165//23 167//23 169//23 171//23 173//23 175//23 177//23 179//23 181//23 183//23 185//23 187//23 189//23 191//23 193//23 195//23 197//23 199//23
f 205//82 204//82 236//82 237//82
f 232//87 231//87 263//87 264//87
f 219//101 218//101 250//101 251//101
f 206//81 205//81 237//81 238//81
f 201//86 232//86 264//86 233//86
f 220//99 219//99 251//99 252//99
f 207//80 206//80 238//80 239//80
f 221//98 220//98 252//98 253//98
f 208//79 207//79 239//79 240//79
f 222//97 221//97 253//97 254//97
f 209//78 208//78 240//78 241//78
f 223//96 222//96 254//96 255//96
f 210//77 209//77 241//77 242//77
f 224//95 223//95 255//95 256//95
f 211//76 210//76 242//76 243//76
f 225//94 224//94 256//94 257//94
f 212//75 211//75 243//75 244//75
f 226//93 225//93 257//93 258//93
f 213//74 212//74 244//74 245//74
f 227//92 226//92 258//92 259//92
f 214//73 213//73 245//73 246//73
f 228//91 227//91 259//91 260//91
f 215//72 214//72 246//72 247//72
f 202//85 201//85 233//85 234//85
f 229//90 228//90 260//90 261//90
f 216//71 215//71 247//71 248//71
f 203//84 202//84 234//84 235//84
f 230//89 229//89 261//89 262//89
f 217//70 216//70 248//70 249//70
f 204//83 203//83 235//83 236//83
f 231//88 230//88 262//88 263//88
f 218//102 217//102 249//102 250//102
f 234//23 233//23 264//23 263//23 262//23 261//23 260//23 259//23 258//23 257//23 256//23 255//23 254//23 253//23 252//23 251//23 250//23 249//23 248//23 247//23 246//23 245//23 244//23 243//23 242//23 241//23 240//23 239//23 238//23 237//23 236//23 235//23
f 202//100 203//100 204//100 205//100 206//100 207//100 208//100 209//100 210//100 211//100 212//100 213//100 214//100 215//100 216//100 217//100 218//100 219//100 220//100 221//100 222//100 223//100 224//100 225//100 226//100 227//100 228//100 229//100 230//100 231//100 232//100 201//100
